Coordinates
nRows=140
nColumns=2
inDegrees=yes
endheader
time	ankle_angle_r	
2.99981	  9.307461	
3.0623	  9.307527	
3.1248	  9.327764	
3.1873	  9.371637	
3.24979	  9.375671	
3.31229	  9.378343	
3.37478	  9.375003	
3.43728	  9.325969	
3.49978	  9.313107	
3.56227	  9.317111	
3.62477	  9.327029	
3.68726	  9.372624	
3.74976	  9.384373	
3.81226	  9.417901	
3.87475	  9.469712	
3.93725	  9.434900	
3.99974	  9.408337	
4.06224	  9.414478	
4.12474	  9.420493	
4.18723	  9.460609	
4.24973	  9.454786	
4.31222	  9.423722	
4.37472	  9.403026	
4.43722	  9.327485	
4.49971	  9.284141	
4.56221	  9.303326	
4.6247	  9.327450	
4.6872	  9.377373	
4.7497	  9.384053	
4.81219	  9.339310	
4.87469	  9.337608	
4.93718	  9.326564	
4.99968	  9.288226	
5.06218	  9.289869	
5.12467	  9.304972	
5.18717	  9.330038	
5.24966	  9.384552	
5.31216	  9.441012	
5.37466	  9.479088	
5.43715	  9.453258	
5.49965	  9.381121	
5.56214	  9.354311	
5.62464	  9.380715	
5.68714	  9.422348	
5.74963	  9.436425	
5.81213	  9.423405	
5.87462	  9.414251	
5.93712	  9.361256	
5.99962	  9.311215	
6.06211	  9.329538	
6.12461	  9.324397	
6.1871	  9.313031	
6.2496	  9.349895	
6.3121	  9.378668	
6.37459	  9.383320	
6.43709	  9.352915	
6.49958	  9.317942	
6.56208	  9.310835	
6.62458	  9.298121	
6.68707	  9.320392	
6.74957	  9.378431	
6.81206	  9.423502	
6.87456	  9.455231	
6.93706	  9.431729	
6.99955	  9.392898	
7.06205	  9.406024	
7.12454	  9.418701	
7.18704	  9.433286	
7.24954	  9.462006	
7.31203	  9.467112	
7.37453	  9.445819	
7.43702	  9.380763	
7.49952	  9.321822	
7.56202	  9.310618	
7.62451	  9.291231	
7.68701	  9.301886	
7.7495	  9.351385	
7.812	  9.383646	
7.8745	  9.411289	
7.93699	  9.382750	
7.99949	  9.310126	
8.06198	  9.289316	
8.12448	  9.294843	
8.18698	  9.334794	
8.24947	  9.412199	
8.31197	  9.442585	
8.37446	  9.446383	
8.43696	  9.439846	
8.49946	  9.403198	
8.56195	  9.385253	
8.62445	  9.399542	
8.68694	  9.446228	
8.74944	  9.473065	
8.81194	  9.431864	
8.87443	  9.394577	
8.93693	  9.355825	
8.99942	  9.320917	
9.06192	  9.316676	
9.12442	  9.283814	
9.18691	  9.312697	
9.24941	  9.402638	
9.3119	  9.399229	
9.3744	  9.371498	
9.4369	  9.362340	
9.49939	  9.332395	
9.56189	  9.328483	
9.62438	  9.316329	
9.68688	  9.321428	
9.74938	  9.395683	
9.81187	  9.457622	
9.87437	  9.481368	
9.93686	  9.453625	
9.99936	  9.400032	
10.0619	  9.393411	
10.1244	  9.375859	
10.1868	  9.378861	
10.2493	  9.458371	
10.3118	  9.497814	
10.3743	  9.484761	
10.4368	  9.449319	
10.4993	  9.399273	
10.5618	  9.384741	
10.6243	  9.360777	
10.6868	  9.375703	
10.7493	  9.453977	
10.8118	  9.450213	
10.8743	  9.420022	
10.9368	  9.426505	
10.9993	  9.394889	
11.0618	  9.372130	
11.1243	  9.381025	
11.1868	  9.393654	
11.2493	  9.411673	
11.3118	  9.426738	
11.3743	  9.426616	
11.4368	  9.377586	
11.4993	  9.349216	
11.5618	  9.386349	
11.6243	  9.397622	
11.6868	  9.384015	
